<svg width="61" height="59" viewBox="0 0 61 59" fill="none" xmlns="http://www.w3.org/2000/svg">
<path d="M1.06228 53.1106L34.5623 15.6106L39 22.1106L7.56229 57.6106C6.56228 58.2773 4.16228 59.2106 2.56228 57.6106C0.962279 56.0106 0.895613 53.944 1.06228 53.1106Z" fill="#565656"/>
<path d="M45 22.2835C41 22 39.5 22.1106 39 22.1106L34.5623 15.6106C38.0623 1.33663 18 7.00001 21.5 3.5C25 0 35.5623 -1.67887 42.0623 3.11061C45.229 5.44394 52.0623 10.9106 52.0623 14.1106C52.0623 16.7387 53.6361 17.0735 54.8449 16.8322C55.2819 16.745 55.7565 16.848 56.0387 17.1929L60.0623 22.1106L50.5623 31.6106L46.3016 26.9238C45.9051 26.4876 45.9752 25.8067 46.3789 25.3771C47.4813 24.2037 48.2114 22.5111 45 22.2835Z" fill="#7F7C79"/>
<path d="M7.36942 0.0042727C7.56655 0.0149152 7.74359 0.11451 7.88319 0.254111L36.8791 29.25C37.3005 29.6714 37.2621 30.3656 36.7967 30.738L35.1691 32.04L32.6691 35.04L31.367 36.6676C30.9947 37.133 30.3005 37.1714 29.8791 36.75L0.239114 7.11003C0.19255 7.06346 0.149271 7.01366 0.120265 6.95455C-0.164593 6.37398 -0.107954 4.81707 2.1691 2.54002C4.32335 0.385767 6.37017 -0.0496718 7.36942 0.0042727Z" fill="#E15649"/>
<path d="M54.7043 58.54C54.3699 58.54 54.0577 58.3729 53.8722 58.0947L51.1691 54.04L52.9191 52.79L54.6691 51.54L58.1991 53.7463C58.4915 53.929 58.6691 54.2495 58.6691 54.5943V57.54C58.6691 58.0923 58.2214 58.54 57.6691 58.54H56.4191H54.7043Z" fill="#C3C7CB"/>
<path d="M51.1691 54.04L32.6691 35.04L35.1691 32.04L54.6691 51.54L52.9191 52.79L51.1691 54.04Z" fill="#E0E0E0"/>
<path d="M22.2929 23.3729L4.6671 5.74712C4.27657 5.3566 4.27657 4.72343 4.6671 4.33291L4.79438 4.20562C5.18433 3.81568 5.81635 3.81501 6.20711 4.20414L23.8699 21.7929C24.2619 22.1832 24.2625 22.8175 23.8714 23.2086L23.7071 23.3729C23.3166 23.7634 22.6834 23.7634 22.2929 23.3729Z" fill="#BC342E"/>
</svg>
